<?xml version="1.0" encoding="UTF-8" standalone="no"?>
<!DOCTYPE svg PUBLIC "-//W3C//DTD SVG 1.1//EN" "http://www.w3.org/Graphics/SVG/1.1/DTD/svg11.dtd">
<svg width="100%" height="100%" viewBox="0 0 200 200" version="1.1" xmlns="http://www.w3.org/2000/svg" xmlns:xlink="http://www.w3.org/1999/xlink" xml:space="preserve" xmlns:serif="http://www.serif.com/" style="fill-rule:evenodd;clip-rule:evenodd;stroke-linejoin:round;stroke-miterlimit:1.41421;">
    <g transform="matrix(1,0,0,1,0.167795,-0.324364)">
        <circle cx="99.832" cy="100.324" r="96.132" style="fill:url(#_Linear1);"/>
    </g>
    <g transform="matrix(5.25035,0,0,5.25035,-343.323,-377.055)">
        <path d="M94.199,81.655C94.355,82.342 94.449,83.03 94.48,83.717C94.511,84.155 94.527,84.764 94.527,85.545C94.527,87.795 93.949,89.764 92.792,91.452C91.824,92.889 90.402,94.217 88.527,95.436L88.527,100.311C88.527,100.749 88.417,101.147 88.199,101.506C87.98,101.866 87.667,102.139 87.261,102.327L82.667,104.67C82.292,104.827 81.925,104.795 81.566,104.577C81.207,104.358 81.027,104.045 81.027,103.639L81.027,99.186C80.277,99.53 79.683,99.811 79.246,100.03C79.121,100.092 78.972,100.108 78.8,100.077C78.628,100.045 78.496,99.983 78.402,99.889L75.402,96.889C75.308,96.795 75.246,96.663 75.214,96.491C75.183,96.319 75.199,96.17 75.261,96.045C75.511,95.545 75.792,94.952 76.105,94.264L71.652,94.264C71.246,94.264 70.933,94.085 70.714,93.725C70.496,93.366 70.48,92.999 70.667,92.624L72.964,87.983C73.152,87.608 73.425,87.311 73.785,87.092C74.144,86.874 74.542,86.764 74.98,86.764L79.855,86.764C81.074,84.858 82.386,83.436 83.792,82.499C85.511,81.342 87.496,80.764 89.746,80.764C90.558,80.764 91.167,80.78 91.574,80.811C92.261,80.842 92.949,80.936 93.636,81.092C93.949,81.155 94.136,81.342 94.199,81.655ZM89.277,88.264C89.902,88.264 90.433,88.045 90.871,87.608C91.308,87.17 91.527,86.639 91.527,86.014C91.527,85.389 91.308,84.858 90.871,84.42C90.433,83.983 89.902,83.764 89.277,83.764C88.652,83.764 88.121,83.983 87.683,84.42C87.246,84.858 87.027,85.389 87.027,86.014C87.027,86.639 87.246,87.17 87.683,87.608C88.121,88.045 88.652,88.264 89.277,88.264Z" style="fill:rgb(235,235,235);fill-rule:nonzero;"/>
    </g>
    <defs>
        <linearGradient id="_Linear1" x1="0" y1="0" x2="1" y2="0" gradientUnits="userSpaceOnUse" gradientTransform="matrix(-121.703,142.15,-142.15,-121.703,163.127,32.7009)"><stop offset="0" style="stop-color:rgb(188,50,182);stop-opacity:1"/><stop offset="1" style="stop-color:rgb(125,68,199);stop-opacity:1"/></linearGradient>
    </defs>
</svg>
