<?xml version="1.0" encoding="UTF-8" standalone="no"?>
<!DOCTYPE svg PUBLIC "-//W3C//DTD SVG 1.1//EN" "http://www.w3.org/Graphics/SVG/1.1/DTD/svg11.dtd">
<svg width="100%" height="100%" viewBox="0 0 200 200" version="1.1" xmlns="http://www.w3.org/2000/svg" xmlns:xlink="http://www.w3.org/1999/xlink" xml:space="preserve" xmlns:serif="http://www.serif.com/" style="fill-rule:evenodd;clip-rule:evenodd;stroke-linejoin:round;stroke-miterlimit:1.41421;">
    <g transform="matrix(1,0,0,1,0.167795,-0.324364)">
        <circle cx="99.832" cy="100.324" r="96.132" style="fill:url(#_Linear1);"/>
    </g>
    <g transform="matrix(3.97278,0,0,3.97278,-342.399,-268.249)">
        <path d="M106.576,103.858C106.42,103.796 106.303,103.702 106.225,103.577C106.146,103.452 106.139,103.312 106.201,103.155L112.576,81.124C112.639,80.968 112.732,80.851 112.857,80.773C112.982,80.694 113.123,80.671 113.279,80.702L116.139,81.546C116.295,81.608 116.412,81.702 116.49,81.827C116.568,81.952 116.576,82.093 116.514,82.249L110.139,104.28C110.076,104.437 109.982,104.554 109.857,104.632C109.732,104.71 109.592,104.718 109.436,104.655L106.576,103.858ZM104.092,99.405C103.998,99.53 103.873,99.593 103.717,99.593C103.561,99.593 103.42,99.546 103.295,99.452L96.545,93.124C96.42,92.999 96.357,92.858 96.357,92.702C96.357,92.546 96.42,92.405 96.545,92.28L103.295,85.952C103.42,85.858 103.561,85.812 103.717,85.812C103.873,85.812 103.998,85.874 104.092,85.999L106.107,88.155C106.232,88.28 106.287,88.421 106.271,88.577C106.256,88.733 106.201,88.858 106.107,88.952L101.842,92.702L106.107,96.452C106.201,96.546 106.256,96.671 106.271,96.827C106.287,96.983 106.232,97.124 106.107,97.249L104.092,99.405ZM119.42,99.452C119.295,99.546 119.154,99.593 118.998,99.593C118.842,99.593 118.717,99.53 118.623,99.405L116.607,97.249C116.482,97.124 116.428,96.983 116.443,96.827C116.459,96.671 116.514,96.546 116.607,96.452L120.873,92.702L116.607,88.952C116.514,88.858 116.459,88.733 116.443,88.577C116.428,88.421 116.482,88.28 116.607,88.155L118.623,85.999C118.748,85.874 118.881,85.812 119.021,85.812C119.162,85.812 119.295,85.858 119.42,85.952L126.17,92.28C126.295,92.405 126.357,92.546 126.357,92.702C126.357,92.858 126.295,92.999 126.17,93.124L119.42,99.452Z" style="fill:rgb(235,235,235);fill-rule:nonzero;"/>
    </g>
    <defs>
        <linearGradient id="_Linear1" x1="0" y1="0" x2="1" y2="0" gradientUnits="userSpaceOnUse" gradientTransform="matrix(-121.703,142.15,-142.15,-121.703,163.127,32.7009)"><stop offset="0" style="stop-color:rgb(255,59,137);stop-opacity:1"/><stop offset="1" style="stop-color:rgb(255,132,34);stop-opacity:1"/></linearGradient>
    </defs>
</svg>
