<?xml version="1.0" encoding="UTF-8" standalone="no"?>
<!DOCTYPE svg PUBLIC "-//W3C//DTD SVG 1.1//EN" "http://www.w3.org/Graphics/SVG/1.1/DTD/svg11.dtd">
<svg width="100%" height="100%" viewBox="0 0 26 32" version="1.1" xmlns="http://www.w3.org/2000/svg" xmlns:xlink="http://www.w3.org/1999/xlink" xml:space="preserve" xmlns:serif="http://www.serif.com/" style="fill-rule:evenodd;clip-rule:evenodd;stroke-linejoin:round;stroke-miterlimit:1.41421;">
    <g transform="matrix(1,0,0,1,-3.08841,7.54755)">
        <path d="M16.088,4.595C16.115,4.595 16.142,4.595 16.175,4.602C16.624,4.649 16.946,5.044 16.946,5.493L16.946,6.31L17.16,6.31L17.16,5.452C17.16,5.037 17.495,4.702 17.91,4.702C17.963,4.702 18.017,4.709 18.064,4.716C18.419,4.789 18.66,5.118 18.66,5.473L18.66,6.31L18.874,6.31L18.874,6.095C18.874,5.68 19.209,5.345 19.624,5.345C20.053,5.345 20.374,5.694 20.374,6.115L20.374,7.763C20.374,7.937 20.354,8.111 20.307,8.278L19.584,11.198C19.537,11.365 19.517,11.54 19.517,11.714L19.517,11.881C19.517,12.115 19.323,12.31 19.088,12.31L14.803,12.31C14.568,12.31 14.374,12.115 14.374,11.881C14.374,11.613 14.307,11.392 14.113,11.198L12.037,9.216C11.89,9.069 11.803,8.874 11.803,8.667L11.803,7.167C11.803,6.752 12.138,6.417 12.553,6.417C12.981,6.417 13.303,6.765 13.303,7.187L13.303,8.339L13.517,8.54L13.517,5.667C13.517,5.252 13.852,4.917 14.267,4.917C14.696,4.917 15.017,5.265 15.017,5.687L15.017,6.31L15.231,6.31L15.231,5.452C15.231,4.977 15.613,4.595 16.088,4.595ZM16.088,3.738C15.653,3.738 15.238,3.899 14.923,4.2C14.716,4.106 14.495,4.06 14.267,4.06C13.423,4.06 12.713,4.716 12.66,5.566C12.626,5.56 12.593,5.56 12.553,5.56C11.669,5.56 10.946,6.283 10.946,7.167L10.946,8.667C10.946,9.109 11.14,9.537 11.454,9.839L13.517,11.821C13.517,12.557 14.039,13.167 14.803,13.167L19.088,13.167C19.798,13.167 20.374,12.591 20.374,11.881C20.374,11.72 20.374,11.566 20.414,11.406L21.144,8.486C21.198,8.252 21.231,8.004 21.231,7.763L21.231,6.115C21.231,5.225 20.521,4.488 19.624,4.488C19.49,4.488 19.356,4.502 19.229,4.535C18.928,4.1 18.439,3.845 17.91,3.845C17.622,3.845 17.334,3.926 17.086,4.073C16.798,3.852 16.45,3.738 16.088,3.738Z" style="fill:rgb(177,55,223);fill-rule:nonzero;"/>
    </g>
</svg>
