<?xml version="1.0" encoding="UTF-8" standalone="no"?>
<!DOCTYPE svg PUBLIC "-//W3C//DTD SVG 1.1//EN" "http://www.w3.org/Graphics/SVG/1.1/DTD/svg11.dtd">
<svg width="100%" height="100%" viewBox="0 0 26 32" version="1.1" xmlns="http://www.w3.org/2000/svg" xmlns:xlink="http://www.w3.org/1999/xlink" xml:space="preserve" xmlns:serif="http://www.serif.com/" style="fill-rule:evenodd;clip-rule:evenodd;stroke-linejoin:round;stroke-miterlimit:1.41421;">
    <g transform="matrix(1,0,0,1,-4.8096,8.24941)">
        <path d="M22.952,7.751C21.807,9.518 19.959,10.751 17.81,10.751C15.66,10.751 13.812,9.518 12.667,7.751C13.303,6.766 14.173,5.922 15.218,5.387C14.95,5.842 14.81,6.364 14.81,6.893C14.81,8.547 16.156,9.893 17.81,9.893C19.464,9.893 20.81,8.547 20.81,6.893C20.81,6.364 20.669,5.842 20.401,5.387C21.446,5.922 22.316,6.766 22.952,7.751ZM18.131,5.179C18.131,5.353 17.984,5.501 17.81,5.501C17.046,5.501 16.417,6.13 16.417,6.893C16.417,7.068 16.269,7.215 16.095,7.215C15.921,7.215 15.774,7.068 15.774,6.893C15.774,5.775 16.691,4.858 17.81,4.858C17.984,4.858 18.131,5.005 18.131,5.179ZM23.81,7.751C23.81,7.583 23.756,7.429 23.676,7.289C22.444,5.266 20.187,3.893 17.81,3.893C15.432,3.893 13.176,5.266 11.944,7.289C11.863,7.429 11.81,7.583 11.81,7.751C11.81,7.918 11.863,8.072 11.944,8.213C13.176,10.235 15.432,11.608 17.81,11.608C20.187,11.608 22.444,10.242 23.676,8.213C23.756,8.072 23.81,7.918 23.81,7.751Z" style="fill:rgb(177,55,223);fill-rule:nonzero;"/>
    </g>
</svg>
