<?xml version="1.0" encoding="UTF-8" standalone="no"?>
<!DOCTYPE svg PUBLIC "-//W3C//DTD SVG 1.1//EN" "http://www.w3.org/Graphics/SVG/1.1/DTD/svg11.dtd">
<svg width="100%" height="100%" viewBox="0 0 26 32" version="1.1" xmlns="http://www.w3.org/2000/svg" xmlns:xlink="http://www.w3.org/1999/xlink" xml:space="preserve" xmlns:serif="http://www.serif.com/" style="fill-rule:evenodd;clip-rule:evenodd;stroke-linejoin:round;stroke-miterlimit:1.41421;">
    <g transform="matrix(1,0,0,1,-4.29608,6.70501)">
        <path d="M22.272,10.366C22.272,10.253 22.178,10.152 22.057,10.152L20.772,10.152C20.671,10.152 20.604,10.212 20.571,10.306C20.457,10.574 20.376,10.828 20.216,11.09C19.593,12.107 18.488,12.724 17.296,12.724C16.432,12.724 15.595,12.389 14.966,11.799L15.883,10.882C15.963,10.802 16.01,10.695 16.01,10.581C16.01,10.346 15.816,10.152 15.582,10.152L12.582,10.152C12.347,10.152 12.153,10.346 12.153,10.581L12.153,13.581C12.153,13.815 12.347,14.009 12.582,14.009C12.696,14.009 12.803,13.962 12.883,13.882L13.747,13.018C14.698,13.922 15.963,14.438 17.269,14.438C19.74,14.438 21.696,12.784 22.265,10.413C22.272,10.4 22.272,10.38 22.272,10.366ZM22.439,5.009C22.439,4.775 22.245,4.581 22.01,4.581C21.897,4.581 21.789,4.628 21.709,4.708L20.838,5.572C19.888,4.674 18.609,4.152 17.296,4.152C14.825,4.152 12.85,5.799 12.274,8.177C12.274,8.19 12.274,8.21 12.274,8.224C12.274,8.337 12.368,8.438 12.488,8.438L13.821,8.438C13.921,8.438 13.988,8.378 14.022,8.284C14.135,8.016 14.216,7.762 14.376,7.5C14.999,6.482 16.104,5.866 17.296,5.866C18.16,5.866 18.997,6.195 19.633,6.784L18.709,7.708C18.629,7.788 18.582,7.895 18.582,8.009C18.582,8.244 18.776,8.438 19.01,8.438L22.01,8.438C22.245,8.438 22.439,8.244 22.439,8.009L22.439,5.009Z" style="fill:rgb(177,55,223);fill-rule:nonzero;"/>
    </g>
</svg>
